<svg viewBox="0 0 1600 1780" xmlns="http://www.w3.org/2000/svg" font-family="Helvetica, Arial, sans-serif">
  <defs>
    <marker id="arrow" viewBox="0 0 10 10" refX="9" refY="5" markerWidth="7" markerHeight="7" orient="auto-start-reverse">
      <path d="M0,0 L10,5 L0,10 z" fill="#2c3e50"/>
    </marker>
    <marker id="arrowRed" viewBox="0 0 10 10" refX="9" refY="5" markerWidth="7" markerHeight="7" orient="auto-start-reverse">
      <path d="M0,0 L10,5 L0,10 z" fill="#c0392b"/>
    </marker>
  </defs>

  <!-- BACKGROUND -->
  <rect x="0" y="0" width="1600" height="1780" fill="#ffffff"/>

  <!-- TITLE -->
  <text x="800" y="38" text-anchor="middle" font-size="24" font-weight="700" fill="#17202a">Calibration-Aware Structural Compression of a Point Cloud Transformer</text>
  <text x="800" y="62" text-anchor="middle" font-size="16" fill="#566573">via Recoupling-Ratio-Guided Flow Walking — Full Experimental Pipeline</text>

  <!-- ================= STAGE 1 PANEL ================= -->
  <rect x="20" y="85" width="1560" height="380" rx="10" fill="#fbfcfc" stroke="#aab7b8" stroke-width="1.5"/>
  <rect x="20" y="85" width="230" height="34" rx="8" fill="#2c3e50"/>
  <text x="135" y="108" text-anchor="middle" font-size="15" font-weight="700" fill="#ffffff">STAGE 1 — Teacher Training</text>

  <!-- Input point cloud -->
  <rect x="45" y="150" width="120" height="64" rx="8" fill="#aed6f1" stroke="#2874a6" stroke-width="1.5"/>
  <text x="105" y="176" text-anchor="middle" font-size="12" font-weight="600">Input Point</text>
  <text x="105" y="192" text-anchor="middle" font-size="12" font-weight="600">Cloud  N×3</text>
  <text x="105" y="206" text-anchor="middle" font-size="10" fill="#34495e">ModelNet40</text>

  <line x1="165" y1="182" x2="200" y2="182" stroke="#2c3e50" stroke-width="2" marker-end="url(#arrow)"/>

  <!-- Input embedding -->
  <rect x="200" y="150" width="140" height="64" rx="8" fill="#a9dfbf" stroke="#1e8449" stroke-width="1.5"/>
  <text x="270" y="176" text-anchor="middle" font-size="12" font-weight="600">Input Embedding</text>
  <text x="270" y="192" text-anchor="middle" font-size="11">2× LBR layers</text>
  <text x="270" y="206" text-anchor="middle" font-size="10" fill="#145a32">coordinate-based</text>

  <line x1="340" y1="182" x2="375" y2="182" stroke="#2c3e50" stroke-width="2" marker-end="url(#arrow)"/>

  <!-- SG1 -->
  <rect x="375" y="150" width="120" height="64" rx="8" fill="#85c1e9" stroke="#1a5276" stroke-width="1.5"/>
  <text x="435" y="174" text-anchor="middle" font-size="12" font-weight="600">SG Module 1</text>
  <text x="435" y="190" text-anchor="middle" font-size="10">Sample + kNN grouping</text>
  <text x="435" y="204" text-anchor="middle" font-size="10" fill="#154360">local aggregation</text>

  <line x1="495" y1="182" x2="525" y2="182" stroke="#2c3e50" stroke-width="2" marker-end="url(#arrow)"/>

  <!-- SG2 -->
  <rect x="525" y="150" width="120" height="64" rx="8" fill="#85c1e9" stroke="#1a5276" stroke-width="1.5"/>
  <text x="585" y="174" text-anchor="middle" font-size="12" font-weight="600">SG Module 2</text>
  <text x="585" y="190" text-anchor="middle" font-size="10">Sample + kNN grouping</text>
  <text x="585" y="204" text-anchor="middle" font-size="10" fill="#154360">local aggregation</text>

  <line x1="645" y1="182" x2="672" y2="182" stroke="#2c3e50" stroke-width="2" marker-end="url(#arrow)"/>

  <!-- 12 OA blocks -->
  <text x="1120" y="140" text-anchor="middle" font-size="13" font-weight="700" fill="#7d6608">12-layer Offset-Attention (OA) Encoder</text>
  <g id="oa-blocks">
    <rect x="672" y="150" width="62" height="64" rx="6" fill="#f9e79f" stroke="#9a7d0a" stroke-width="1.3"/>
    <text x="703" y="186" text-anchor="middle" font-size="12" font-weight="700">OA[0]</text>
    <rect x="746" y="150" width="62" height="64" rx="6" fill="#f9e79f" stroke="#9a7d0a" stroke-width="1.3"/>
    <text x="777" y="186" text-anchor="middle" font-size="12" font-weight="700">OA[1]</text>
    <rect x="820" y="150" width="62" height="64" rx="6" fill="#f9e79f" stroke="#9a7d0a" stroke-width="1.3"/>
    <text x="851" y="186" text-anchor="middle" font-size="12" font-weight="700">OA[2]</text>

    <rect x="894" y="150" width="62" height="64" rx="6" fill="#fadbd8" stroke="#c0392b" stroke-width="2"/>
    <text x="925" y="186" text-anchor="middle" font-size="12" font-weight="700">OA[3]</text>
    <rect x="968" y="150" width="62" height="64" rx="6" fill="#fadbd8" stroke="#c0392b" stroke-width="2"/>
    <text x="999" y="186" text-anchor="middle" font-size="12" font-weight="700">OA[4]</text>
    <rect x="1042" y="150" width="62" height="64" rx="6" fill="#fadbd8" stroke="#c0392b" stroke-width="2"/>
    <text x="1073" y="186" text-anchor="middle" font-size="12" font-weight="700">OA[5]</text>
    <rect x="1116" y="150" width="62" height="64" rx="6" fill="#fadbd8" stroke="#c0392b" stroke-width="2"/>
    <text x="1147" y="186" text-anchor="middle" font-size="12" font-weight="700">OA[6]</text>
    <rect x="1190" y="150" width="62" height="64" rx="6" fill="#fadbd8" stroke="#c0392b" stroke-width="2"/>
    <text x="1221" y="186" text-anchor="middle" font-size="12" font-weight="700">OA[7]</text>
    <rect x="1264" y="150" width="62" height="64" rx="6" fill="#fadbd8" stroke="#c0392b" stroke-width="2"/>
    <text x="1295" y="186" text-anchor="middle" font-size="12" font-weight="700">OA[8]</text>
    <rect x="1338" y="150" width="62" height="64" rx="6" fill="#fadbd8" stroke="#c0392b" stroke-width="2"/>
    <text x="1369" y="186" text-anchor="middle" font-size="12" font-weight="700">OA[9]</text>

    <rect x="1412" y="150" width="62" height="64" rx="6" fill="#f9e79f" stroke="#9a7d0a" stroke-width="1.3"/>
    <text x="1443" y="186" text-anchor="middle" font-size="12" font-weight="700">OA[10]</text>
    <rect x="1486" y="150" width="62" height="64" rx="6" fill="#f9e79f" stroke="#9a7d0a" stroke-width="1.3"/>
    <text x="1517" y="186" text-anchor="middle" font-size="12" font-weight="700">OA[11]</text>
  </g>
  <g stroke="#7d6608" stroke-width="1.5" marker-end="url(#arrow)">
    <line x1="734" y1="182" x2="744" y2="182"/>
    <line x1="808" y1="182" x2="818" y2="182"/>
    <line x1="882" y1="182" x2="892" y2="182"/>
    <line x1="956" y1="182" x2="966" y2="182"/>
    <line x1="1030" y1="182" x2="1040" y2="182"/>
    <line x1="1104" y1="182" x2="1114" y2="182"/>
    <line x1="1178" y1="182" x2="1188" y2="182"/>
    <line x1="1252" y1="182" x2="1262" y2="182"/>
    <line x1="1326" y1="182" x2="1336" y2="182"/>
    <line x1="1400" y1="182" x2="1410" y2="182"/>
    <line x1="1474" y1="182" x2="1484" y2="182"/>
  </g>

  <!-- dashed highlight over selected block -->
  <rect x="886" y="140" width="522" height="86" rx="10" fill="none" stroke="#c0392b" stroke-width="2.5" stroke-dasharray="7,4"/>
  <text x="1147" y="240" text-anchor="middle" font-size="12.5" font-weight="700" fill="#c0392b">Block later identified in Stage 2 as compressible — OA[3]→OA[9]</text>

  <!-- classifier + loss -->
  <line x1="1147" y1="214" x2="1147" y2="280" stroke="#2c3e50" stroke-width="2" marker-end="url(#arrow)"/>
  <rect x="1030" y="280" width="234" height="50" rx="8" fill="#d6eaf8" stroke="#21618c" stroke-width="1.5"/>
  <text x="1147" y="310" text-anchor="middle" font-size="12" font-weight="600">MA-Pool → Classifier (LBR×2 + Linear)</text>

  <line x1="1147" y1="330" x2="1147" y2="365" stroke="#2c3e50" stroke-width="2" marker-end="url(#arrow)"/>
  <rect x="990" y="365" width="314" height="56" rx="8" fill="#f5b7b1" stroke="#943126" stroke-width="1.5"/>
  <text x="1147" y="386" text-anchor="middle" font-size="12.5" font-weight="700">Calibration-Aware Training Objective</text>
  <text x="1147" y="404" text-anchor="middle" font-size="11">Focal Loss + MDCA Regularization</text>

  <!-- two teachers note -->
  <rect x="45" y="290" width="345" height="135" rx="8" fill="#eaeded" stroke="#7b7d7d" stroke-width="1.3" stroke-dasharray="4,3"/>
  <text x="217" y="312" text-anchor="middle" font-size="12" font-weight="700">Two teachers trained identically</text>
  <text x="60" y="335" font-size="11">• Cross-Entropy + Label Smoothing → baseline</text>
  <text x="60" y="355" font-size="11">• Focal Loss + MDCA → calibrated</text>
  <text x="60" y="380" font-size="11" fill="#1e8449">The calibrated teacher is chosen for</text>
  <text x="60" y="398" font-size="11" fill="#1e8449">Recoupling-Ratio analysis and compression</text>
  <line x1="390" y1="365" x2="985" y2="393" stroke="#7b7d7d" stroke-width="1.3" stroke-dasharray="4,3" marker-end="url(#arrow)"/>

  <!-- ================= STAGE 2 PANEL ================= -->
  <rect x="20" y="485" width="1560" height="260" rx="10" fill="#fbfcfc" stroke="#aab7b8" stroke-width="1.5"/>
  <rect x="20" y="485" width="360" height="34" rx="8" fill="#1a5276"/>
  <text x="200" y="508" text-anchor="middle" font-size="15" font-weight="700" fill="#ffffff">STAGE 2 — Recoupling-Ratio Block Selection</text>

  <rect x="45" y="545" width="280" height="80" rx="8" fill="#d4e6f1" stroke="#1a5276" stroke-width="1.5"/>
  <text x="185" y="568" text-anchor="middle" font-size="12" font-weight="600">Extract Latents</text>
  <text x="185" y="586" text-anchor="middle" font-size="11">at every OA layer boundary</text>
  <text x="185" y="602" text-anchor="middle" font-size="10.5">(calibrated teacher, frozen)</text>

  <line x1="325" y1="585" x2="360" y2="585" stroke="#2c3e50" stroke-width="2" marker-end="url(#arrow)"/>

  <rect x="360" y="545" width="280" height="80" rx="8" fill="#d4e6f1" stroke="#1a5276" stroke-width="1.5"/>
  <text x="500" y="568" text-anchor="middle" font-size="12" font-weight="600">Optimal-Transport Matching</text>
  <text x="500" y="586" text-anchor="middle" font-size="11">between every candidate</text>
  <text x="500" y="602" text-anchor="middle" font-size="11">pair of OA layers</text>

  <line x1="640" y1="585" x2="675" y2="585" stroke="#2c3e50" stroke-width="2" marker-end="url(#arrow)"/>

  <rect x="675" y="545" width="280" height="80" rx="8" fill="#d4e6f1" stroke="#1a5276" stroke-width="1.5"/>
  <text x="815" y="568" text-anchor="middle" font-size="12" font-weight="600">Recoupling-Ratio Computation</text>
  <text x="815" y="586" text-anchor="middle" font-size="11">estimates trajectory crossing</text>
  <text x="815" y="602" text-anchor="middle" font-size="11">for each candidate block</text>

  <line x1="955" y1="585" x2="990" y2="585" stroke="#2c3e50" stroke-width="2" marker-end="url(#arrow)"/>

  <rect x="990" y="545" width="280" height="80" rx="8" fill="#fef9e7" stroke="#9a7d0a" stroke-width="1.5"/>
  <text x="1130" y="568" text-anchor="middle" font-size="12" font-weight="600">Block Selection</text>
  <text x="1130" y="586" text-anchor="middle" font-size="11">choose the widest contiguous</text>
  <text x="1130" y="602" text-anchor="middle" font-size="11">block with negligible crossing</text>

  <line x1="1130" y1="625" x2="1130" y2="655" stroke="#c0392b" stroke-width="2" marker-end="url(#arrowRed)"/>
  <rect x="855" y="655" width="550" height="60" rx="8" fill="#fadbd8" stroke="#c0392b" stroke-width="2"/>
  <text x="1130" y="680" text-anchor="middle" font-size="13" font-weight="700" fill="#943126">Selected block: OA[3] → OA[9]</text>
  <text x="1130" y="698" text-anchor="middle" font-size="11" fill="#943126">(the six layers targeted for structural compression)</text>

  <!-- ================= STAGE 3 PANEL ================= -->
  <rect x="20" y="770" width="1560" height="500" rx="10" fill="#fbfcfc" stroke="#aab7b8" stroke-width="1.5"/>
  <rect x="20" y="770" width="440" height="34" rx="8" fill="#6c3483"/>
  <text x="240" y="793" text-anchor="middle" font-size="15" font-weight="700" fill="#ffffff">STAGE 3 — Flow-Walking Latent Transport Training</text>

  <!-- frozen teacher + x0/x1 -->
  <rect x="45" y="830" width="230" height="90" rx="8" fill="#ebdef0" stroke="#6c3483" stroke-width="1.5"/>
  <text x="160" y="855" text-anchor="middle" font-size="12" font-weight="700">Frozen Calibrated Teacher</text>
  <text x="160" y="875" text-anchor="middle" font-size="11">supplies paired latents:</text>
  <text x="160" y="892" text-anchor="middle" font-size="11">input of OA[3], output of OA[9]</text>

  <line x1="275" y1="875" x2="310" y2="875" stroke="#2c3e50" stroke-width="2" marker-end="url(#arrow)"/>

  <!-- DiT-style velocity estimator, named blocks only -->
  <rect x="310" y="830" width="560" height="310" rx="10" fill="#f4ecf7" stroke="#6c3483" stroke-width="1.8"/>
  <text x="590" y="855" text-anchor="middle" font-size="13" font-weight="700" fill="#4a235a">Flow-Walking Velocity Estimator (dual-conditioned DiT-style block)</text>

  <rect x="330" y="870" width="150" height="50" rx="6" fill="#d2b4de" stroke="#512e5f" stroke-width="1.3"/>
  <text x="405" y="890" text-anchor="middle" font-size="10.5" font-weight="600">Time-Step</text>
  <text x="405" y="906" text-anchor="middle" font-size="10.5" font-weight="600">Conditioning</text>

  <rect x="500" y="870" width="180" height="50" rx="6" fill="#d2b4de" stroke="#512e5f" stroke-width="1.3"/>
  <text x="590" y="890" text-anchor="middle" font-size="10.5" font-weight="600">Scale / Shift Modulation</text>
  <text x="590" y="906" text-anchor="middle" font-size="10.5">(per sub-layer)</text>

  <line x1="480" y1="895" x2="497" y2="895" stroke="#6c3483" stroke-width="1.6" marker-end="url(#arrow)"/>

  <!-- self attn subblock -->
  <rect x="330" y="940" width="230" height="46" rx="6" fill="#fdebd0" stroke="#9c640c" stroke-width="1.2"/>
  <text x="445" y="967" text-anchor="middle" font-size="11" font-weight="600">Self-Attention Sub-layer</text>

  <!-- feed forward subblock -->
  <rect x="330" y="1000" width="230" height="46" rx="6" fill="#d5f5e3" stroke="#1e8449" stroke-width="1.2"/>
  <text x="445" y="1027" text-anchor="middle" font-size="11" font-weight="600">Feed-Forward Sub-layer</text>

  <line x1="445" y1="920" x2="445" y2="938" stroke="#6c3483" stroke-width="1.6" marker-end="url(#arrow)"/>
  <line x1="445" y1="986" x2="445" y2="998" stroke="#6c3483" stroke-width="1.6" marker-end="url(#arrow)"/>

  <text x="200" y="965" font-size="9.5" fill="#4a235a" text-anchor="end">Q/K/V initialized from</text>
  <text x="200" y="978" font-size="9.5" fill="#4a235a" text-anchor="end">teacher's source layer</text>

  <!-- output velocity -->
  <rect x="620" y="960" width="220" height="90" rx="8" fill="#eaf2f8" stroke="#1a5276" stroke-width="1.5"/>
  <text x="730" y="985" text-anchor="middle" font-size="11.5" font-weight="700">Velocity Output</text>
  <text x="730" y="1003" text-anchor="middle" font-size="10.5">residual connections carry the</text>
  <text x="730" y="1019" text-anchor="middle" font-size="10.5">transport signal through both</text>
  <text x="730" y="1035" text-anchor="middle" font-size="10.5">sub-layers to a single estimate</text>

  <line x1="560" y1="1023" x2="617" y2="1000" stroke="#6c3483" stroke-width="1.6" marker-end="url(#arrow)"/>

  <!-- RK2 integration, named not formulaic -->
  <rect x="890" y="830" width="440" height="310" rx="10" fill="#eaf2f8" stroke="#1a5276" stroke-width="1.8"/>
  <text x="1110" y="855" text-anchor="middle" font-size="13" font-weight="700" fill="#154360">RK2 Midpoint Integration — Flow Walking</text>
  <text x="1110" y="875" text-anchor="middle" font-size="11" fill="#154360">multi-step transport across the removed block (k = 3 steps)</text>

  <circle cx="950" cy="930" r="18" fill="#aed6f1" stroke="#1a5276" stroke-width="1.5"/>
  <text x="950" y="935" text-anchor="middle" font-size="10.5" font-weight="700">Start</text>
  <line x1="968" y1="930" x2="1050" y2="930" stroke="#1a5276" stroke-width="1.8" marker-end="url(#arrow)"/>
  <text x="1009" y="920" text-anchor="middle" font-size="9.5">integration step 1</text>

  <circle cx="1090" cy="930" r="18" fill="#aed6f1" stroke="#1a5276" stroke-width="1.5"/>
  <text x="1090" y="935" text-anchor="middle" font-size="10.5" font-weight="700">·</text>
  <line x1="1108" y1="930" x2="1190" y2="930" stroke="#1a5276" stroke-width="1.8" marker-end="url(#arrow)"/>
  <text x="1149" y="920" text-anchor="middle" font-size="9.5">integration step 2</text>

  <circle cx="1230" cy="930" r="18" fill="#aed6f1" stroke="#1a5276" stroke-width="1.5"/>
  <text x="1230" y="935" text-anchor="middle" font-size="10.5" font-weight="700">·</text>
  <line x1="1248" y1="930" x2="1290" y2="930" stroke="#1a5276" stroke-width="1.8" marker-end="url(#arrow)"/>
  <text x="1272" y="920" text-anchor="middle" font-size="9.5">step 3</text>

  <circle cx="1310" cy="930" r="18" fill="#a9dfbf" stroke="#1e8449" stroke-width="1.5"/>
  <text x="1310" y="935" text-anchor="middle" font-size="10.5" font-weight="700">End</text>

  <rect x="910" y="975" width="400" height="60" rx="8" fill="#fdedec" stroke="#943126" stroke-width="1.5"/>
  <text x="1110" y="998" text-anchor="middle" font-size="11.5" font-weight="700">Flow-Walking Loss</text>
  <text x="1110" y="1018" text-anchor="middle" font-size="10.5">trajectory-matching objective over the k integration steps</text>

  <rect x="910" y="1050" width="400" height="70" rx="8" fill="#eaf2f8" stroke="#1a5276" stroke-width="1.5"/>
  <text x="1110" y="1073" text-anchor="middle" font-size="11" font-weight="700">Trained Velocity Estimator</text>
  <text x="1110" y="1092" text-anchor="middle" font-size="10.5">approximates the full latent evolution of OA[3]→OA[9]</text>
  <text x="1110" y="1108" text-anchor="middle" font-size="10.5">ready to replace the block in Stage 4</text>

  <!-- ================= STAGE 4 PANEL ================= -->
  <rect x="20" y="1290" width="1560" height="410" rx="10" fill="#fbfcfc" stroke="#aab7b8" stroke-width="1.5"/>
  <rect x="20" y="1290" width="440" height="34" rx="8" fill="#186a3b"/>
  <text x="240" y="1313" text-anchor="middle" font-size="15" font-weight="700" fill="#ffffff">STAGE 4 — Compressed Model &amp; End-to-End Fine-Tuning</text>

  <text x="800" y="1355" text-anchor="middle" font-size="13" font-weight="700" fill="#186a3b">Compressed Backbone: retained OA layers + single Flow-Walking transport module</text>

  <!-- compressed chain -->
  <rect x="60" y="1375" width="70" height="60" rx="6" fill="#f9e79f" stroke="#9a7d0a" stroke-width="1.3"/>
  <text x="95" y="1409" text-anchor="middle" font-size="12" font-weight="700">OA[0]</text>
  <line x1="130" y1="1405" x2="160" y2="1405" stroke="#2c3e50" stroke-width="2" marker-end="url(#arrow)"/>

  <rect x="160" y="1375" width="70" height="60" rx="6" fill="#f9e79f" stroke="#9a7d0a" stroke-width="1.3"/>
  <text x="195" y="1409" text-anchor="middle" font-size="12" font-weight="700">OA[1]</text>
  <line x1="230" y1="1405" x2="260" y2="1405" stroke="#2c3e50" stroke-width="2" marker-end="url(#arrow)"/>

  <rect x="260" y="1375" width="70" height="60" rx="6" fill="#f9e79f" stroke="#9a7d0a" stroke-width="1.3"/>
  <text x="295" y="1409" text-anchor="middle" font-size="12" font-weight="700">OA[2]</text>
  <line x1="330" y1="1405" x2="365" y2="1405" stroke="#2c3e50" stroke-width="2" marker-end="url(#arrow)"/>

  <rect x="365" y="1360" width="270" height="90" rx="10" fill="#ebdef0" stroke="#6c3483" stroke-width="2.2"/>
  <text x="500" y="1387" text-anchor="middle" font-size="12" font-weight="700" fill="#4a235a">Flow-Walking Velocity Estimator</text>
  <text x="500" y="1405" text-anchor="middle" font-size="11" fill="#4a235a">replaces OA[3] … OA[9]</text>
  <text x="500" y="1423" text-anchor="middle" font-size="10.5" fill="#4a235a">single learned transport module</text>

  <line x1="635" y1="1405" x2="670" y2="1405" stroke="#2c3e50" stroke-width="2" marker-end="url(#arrow)"/>

  <rect x="670" y="1375" width="70" height="60" rx="6" fill="#f9e79f" stroke="#9a7d0a" stroke-width="1.3"/>
  <text x="705" y="1409" text-anchor="middle" font-size="12" font-weight="700">OA[10]</text>
  <line x1="740" y1="1405" x2="770" y2="1405" stroke="#2c3e50" stroke-width="2" marker-end="url(#arrow)"/>

  <rect x="770" y="1375" width="70" height="60" rx="6" fill="#f9e79f" stroke="#9a7d0a" stroke-width="1.3"/>
  <text x="805" y="1409" text-anchor="middle" font-size="12" font-weight="700">OA[11]</text>
  <line x1="840" y1="1405" x2="870" y2="1405" stroke="#2c3e50" stroke-width="2" marker-end="url(#arrow)"/>

  <rect x="870" y="1375" width="150" height="60" rx="8" fill="#d6eaf8" stroke="#21618c" stroke-width="1.5"/>
  <text x="945" y="1399" text-anchor="middle" font-size="11" font-weight="600">MA-Pool +</text>
  <text x="945" y="1417" text-anchor="middle" font-size="11" font-weight="600">Classifier</text>

  <line x1="1020" y1="1405" x2="1050" y2="1405" stroke="#2c3e50" stroke-width="2" marker-end="url(#arrow)"/>

  <rect x="1050" y="1375" width="290" height="60" rx="8" fill="#f5b7b1" stroke="#943126" stroke-width="1.5"/>
  <text x="1195" y="1399" text-anchor="middle" font-size="11.5" font-weight="700">End-to-End Fine-Tuning</text>
  <text x="1195" y="1417" text-anchor="middle" font-size="10.5">same calibration-aware objective as Stage 1</text>

  <line x1="1195" y1="1435" x2="1195" y2="1470" stroke="#2c3e50" stroke-width="2" marker-end="url(#arrow)"/>
  <rect x="1000" y="1470" width="390" height="60" rx="8" fill="#eaf2f8" stroke="#1a5276" stroke-width="1.5"/>
  <text x="1195" y="1495" text-anchor="middle" font-size="12" font-weight="700" fill="#154360">Final Compressed &amp; Calibrated PCT</text>
  <text x="1195" y="1513" text-anchor="middle" font-size="10.5" fill="#154360">fewer layers, same architecture family as the teacher</text>

  <!-- description note -->
  <rect x="55" y="1470" width="900" height="150" rx="8" fill="#eafaf1" stroke="#1e8449" stroke-width="1.5"/>
  <text x="505" y="1495" text-anchor="middle" font-size="12" font-weight="700" fill="#186a3b">What Stage 4 does</text>
  <text x="75" y="1518" font-size="11">• Splices the trained velocity estimator into the backbone in place of OA[3]–OA[9]</text>
  <text x="75" y="1538" font-size="11">• All other weights are transplanted directly from the calibrated teacher</text>
  <text x="75" y="1558" font-size="11">• The full network is then fine-tuned end-to-end so the classifier adapts to the</text>
  <text x="75" y="1576" font-size="11">  new (compressed) latent representation, recovering discriminative performance</text>
  <text x="75" y="1596" font-size="11">  while keeping the architectural savings from compression permanently in place</text>

  <!-- ================= LEGEND ================= -->
  <rect x="20" y="1645" width="1560" height="120" rx="10" fill="#fbfcfc" stroke="#aab7b8" stroke-width="1.5"/>
  <text x="800" y="1668" text-anchor="middle" font-size="14" font-weight="700">Legend</text>

  <rect x="55" y="1682" width="22" height="22" rx="4" fill="#aed6f1" stroke="#2874a6"/>
  <text x="85" y="1699" font-size="11.5">Raw data / point cloud</text>

  <rect x="330" y="1682" width="22" height="22" rx="4" fill="#a9dfbf" stroke="#1e8449"/>
  <text x="360" y="1699" font-size="11.5">Input embedding (LBR)</text>

  <rect x="600" y="1682" width="22" height="22" rx="4" fill="#85c1e9" stroke="#1a5276"/>
  <text x="630" y="1699" font-size="11.5">Sampling &amp; Grouping (SG)</text>

  <rect x="870" y="1682" width="22" height="22" rx="4" fill="#f9e79f" stroke="#9a7d0a"/>
  <text x="900" y="1699" font-size="11.5">Retained Offset-Attention layer</text>

  <rect x="1180" y="1682" width="22" height="22" rx="4" fill="#fadbd8" stroke="#c0392b"/>
  <text x="1210" y="1699" font-size="11.5">Compressed / removed OA block</text>

  <rect x="55" y="1715" width="22" height="22" rx="4" fill="#ebdef0" stroke="#6c3483"/>
  <text x="85" y="1732" font-size="11.5">Flow-Walking velocity estimator</text>

  <rect x="330" y="1715" width="22" height="22" rx="4" fill="#d6eaf8" stroke="#21618c"/>
  <text x="360" y="1732" font-size="11.5">Pooling / classification head</text>

  <rect x="600" y="1715" width="22" height="22" rx="4" fill="#f5b7b1" stroke="#943126"/>
  <text x="630" y="1732" font-size="11.5">Training objective (loss)</text>

  <rect x="870" y="1715" width="22" height="22" rx="4" fill="#d4e6f1" stroke="#1a5276"/>
  <text x="900" y="1732" font-size="11.5">Recoupling-Ratio / OT analysis step</text>

  <line x1="1180" y1="1726" x2="1202" y2="1726" stroke="#c0392b" stroke-width="2.5" stroke-dasharray="7,4"/>
  <text x="1210" y="1732" font-size="11.5">Selected compression target</text>
</svg>
